/* XPM */
static char * C:\Users\Kim\Google Drive\Java Workspace\Game1\src\img\Untitled_xpm[] = {
"24 12 2 1",
" 	g #000000",
".	g #FFFFFF",
"                        ",
" ..... ................ ",
" ..... ................ ",
" ..... ................ ",
" ..... ................ ",
"   ..                   ",
" ............. ........ ",
" ............. ........ ",
" ...................... ",
" ...................... ",
" ............. ........ ",
"                        "};
